<svg width="28" height="24" viewBox="0 0 28 24" fill="none" xmlns="http://www.w3.org/2000/svg">
<path d="M8.52134 22.6364C8.99972 22.6364 9.38753 22.2486 9.38753 21.7702C9.38753 21.2918 8.99972 20.904 8.52134 20.904C8.04296 20.904 7.65515 21.2918 7.65515 21.7702C7.65515 22.2486 8.04296 22.6364 8.52134 22.6364Z" stroke="#9E9E9E" stroke-width="2" stroke-linecap="round" stroke-linejoin="round"/>
<path d="M18.0494 22.6364C18.5278 22.6364 18.9156 22.2486 18.9156 21.7702C18.9156 21.2918 18.5278 20.904 18.0494 20.904C17.571 20.904 17.1832 21.2918 17.1832 21.7702C17.1832 22.2486 17.571 22.6364 18.0494 22.6364Z" stroke="#9E9E9E" stroke-width="2" stroke-linecap="round" stroke-linejoin="round"/>
<path d="M1.5918 4.44647H5.05655L7.37793 16.0447C7.45714 16.4435 7.67409 16.8017 7.9908 17.0567C8.30751 17.3116 8.7038 17.4471 9.11031 17.4393H17.5297C17.9362 17.4471 18.3324 17.3116 18.6492 17.0567C18.9659 16.8017 19.1828 16.4435 19.262 16.0447L20.6479 8.77741H5.92274" stroke="#9E9E9E" stroke-width="2" stroke-linecap="round" stroke-linejoin="round"/>
<circle cx="21.7168" cy="5.71684" r="5.71684" fill="#BD0066"/>
<path d="M20.7139 5.40527H21.3247C21.7085 5.39941 22.0103 5.29834 22.23 5.10205C22.4497 4.90576 22.5596 4.64062 22.5596 4.30664C22.5596 3.55664 22.186 3.18164 21.439 3.18164C21.0874 3.18164 20.8062 3.28271 20.5952 3.48486C20.3872 3.68408 20.2832 3.94922 20.2832 4.28027H19.4702C19.4702 3.77344 19.6548 3.35303 20.0239 3.01904C20.396 2.68213 20.8677 2.51367 21.439 2.51367C22.0425 2.51367 22.5156 2.67334 22.8584 2.99268C23.2012 3.31201 23.3726 3.75586 23.3726 4.32422C23.3726 4.60254 23.2817 4.87207 23.1001 5.13281C22.9214 5.39355 22.6768 5.58838 22.3662 5.71729C22.7178 5.82861 22.9888 6.01318 23.1792 6.271C23.3726 6.52881 23.4692 6.84375 23.4692 7.21582C23.4692 7.79004 23.2817 8.24561 22.9067 8.58252C22.5317 8.91943 22.0439 9.08789 21.4434 9.08789C20.8428 9.08789 20.3535 8.92529 19.9756 8.6001C19.6006 8.2749 19.4131 7.8457 19.4131 7.3125H20.2305C20.2305 7.64941 20.3403 7.91895 20.5601 8.12109C20.7798 8.32324 21.0742 8.42432 21.4434 8.42432C21.8359 8.42432 22.1362 8.32178 22.3442 8.1167C22.5522 7.91162 22.6562 7.61719 22.6562 7.2334C22.6562 6.86133 22.542 6.57568 22.3135 6.37646C22.085 6.17725 21.7554 6.07471 21.3247 6.06885H20.7139V5.40527Z" fill="white"/>
</svg>
