<svg width="17" height="17" viewBox="0 0 17 17" fill="none" xmlns="http://www.w3.org/2000/svg">
<path d="M1.54545 2.31818C1.54545 1.89318 1.89318 1.54545 2.31818 1.54545H3.86364V0H2.31818C1.04318 0 0 1.04318 0 2.31818V3.86364H1.54545V2.31818Z" fill="#344A94"/>
<path d="M14.6818 1.54545C15.1068 1.54545 15.4545 1.89318 15.4545 2.31818V3.86364H17V2.31818C17 1.04318 15.9568 0 14.6818 0H13.1364V1.54545H14.6818Z" fill="#344A94"/>
<path d="M2.31818 15.4545C1.89318 15.4545 1.54545 15.1068 1.54545 14.6818V13.1364H0V14.6818C0 15.9568 1.04318 17 2.31818 17H3.86364V15.4545H2.31818Z" fill="#344A94"/>
<path d="M14.6818 15.4545C15.1068 15.4545 15.4545 15.1068 15.4545 14.6818V13.1364H17V14.6818C17 15.9568 15.9568 17 14.6818 17H13.1364V15.4545H14.6818Z" fill="#344A94"/>
<path d="M13.3295 5.10008L9.07952 2.64281C8.72406 2.43417 8.27588 2.43417 7.92043 2.64281L3.67043 5.10008C3.31497 5.30871 3.09088 5.68735 3.09088 6.10462V11.0114C3.09088 11.4287 3.31497 11.8074 3.67043 12.016L7.92043 14.4733C8.27588 14.6819 8.72406 14.6819 9.07952 14.4733L13.3295 12.016C13.685 11.8074 13.9091 11.4287 13.9091 11.0114V6.10462C13.9091 5.68735 13.685 5.30871 13.3295 5.10008ZM4.63634 10.7874V7.21735L7.72725 9.01008V12.5724L4.63634 10.7874ZM8.49997 7.67326L5.40906 5.88053L8.49997 4.09553L11.5909 5.88053L8.49997 7.67326ZM9.2727 12.5724V9.01008L12.3636 7.21735V10.7874L9.2727 12.5724Z" fill="#344A94"/>
</svg>
