<svg width="121" height="65" viewBox="0 0 121 65" fill="none" xmlns="http://www.w3.org/2000/svg">
<path fill-rule="evenodd" clip-rule="evenodd" d="M112.658 62.9114H109.536L113.179 52.9917C113.179 52.9917 116.562 52.9917 118.903 53.2524C122.286 53.2524 121.244 57.9511 118.122 58.7351L119.424 62.6507H115.261L114.742 58.2127C116.562 57.9511 117.344 57.4296 117.603 55.8634C117.603 55.8634 117.603 54.5598 115.782 54.5598L112.658 62.9114ZM70.2498 0C70.2498 0 67.6471 6.78727 66.0864 9.1366C49.6952 8.87587 38.2472 24.2783 51.5161 26.8883C53.8576 27.4107 58.3807 27.339 65.8262 27.4107L77.2742 0H99.1301C101.211 0 103.293 2.0886 102.513 4.43793C101.211 8.09276 89.7633 32.8906 86.9013 39.1564C86.9013 39.1564 85.0804 44.1168 80.1362 44.1168H39.5476C37.9869 44.1168 33.5633 43.3336 35.6436 39.1564C37.2061 35.7633 50.9956 3.91555 50.9956 3.91555C52.5572 0.78311 54.6384 0.260726 57.5023 0.00465583L70.2498 0ZM60.3624 42.2907H75.193C86.905 40.4629 97.0489 22.1897 75.7135 23.7605C75.9738 23.7605 79.8769 14.1016 79.8769 14.1016H72.5959L60.3624 42.2907ZM74.4122 27.4107C84.2996 27.6714 79.6175 41.246 68.9484 39.4228C69.7292 37.5958 73.8926 27.9368 74.4122 27.4107ZM59.5826 24.0166C56.9799 24.7997 53.8585 23.7559 54.1188 21.6673C54.1188 16.1855 62.7048 12.27 64.2664 13.3138C63.2254 15.6631 59.8428 24.0166 59.5826 24.0166ZM5.72402 60.8228C10.6672 61.3452 13.0087 58.9958 14.5703 54.5579C15.3511 51.9506 13.5292 49.3369 9.62709 50.12C9.62709 50.12 6.50482 58.7351 5.72309 60.8228H5.72402ZM5.98428 48.2921H14.3147C19.7784 48.2921 23.161 59.5182 9.63174 62.9114C9.63174 62.9114 4.4264 63.1731 1.04572 62.9114L5.98428 48.2921ZM26.0183 61.3452C30.1807 63.1731 32.7834 56.3849 27.3197 57.4343L26.0183 61.3452ZM32.0026 52.9917C32.0026 51.6881 29.1406 51.9479 29.1406 51.9479C28.8803 52.9917 27.8393 55.6017 27.8393 55.6017C32.5232 56.1241 32.2629 53.2524 32.0026 52.9945V52.9917ZM32.0026 56.6465C32.0026 56.6465 34.3441 57.4296 34.3441 58.7351C34.3441 58.7351 34.0838 62.1283 30.7013 62.6507C29.3999 63.1731 25.2375 62.9114 21.5919 62.9114L26.0155 50.3807C28.357 50.3807 33.5605 50.6424 33.5605 50.6424C35.1221 50.6424 35.9029 51.946 35.9029 52.9917C35.9029 54.2953 34.8618 56.1241 31.9989 56.6465H32.0026ZM0 64.2169H120.725V65H0V64.2169ZM50.9956 51.6862C50.7353 47.2483 41.8863 51.1638 48.1336 54.2935C48.1336 54.2935 53.0777 56.1213 49.1747 60.82C47.3537 63.6917 38.764 64.7365 38.5074 60.2985C40.3284 59.7762 41.1101 58.9949 41.1101 58.9949C40.5896 61.6022 44.4926 62.6497 45.7931 59.778C47.0944 57.4287 41.6306 56.9063 41.6306 54.2953C41.3704 50.6414 45.793 47.7697 48.9153 47.7697C51.518 47.7697 52.0376 48.8136 53.0787 50.6414C53.0787 50.6414 51.7773 51.1629 50.9965 51.6853L50.9956 51.6862ZM65.0463 52.9898L64.7879 54.5579H61.924C61.4035 54.5579 61.1432 54.5579 60.883 55.0803L59.8419 57.168L63.2244 57.4296L62.7039 58.7333H59.5826C59.5826 58.7333 59.063 60.0369 58.8027 60.8209C58.5424 61.3433 58.5424 61.8657 59.3232 61.604H62.4446L61.6647 62.9077H56.2C54.8987 62.6469 54.8987 61.8638 55.4192 60.8191C56.2 58.2118 56.7205 56.9035 57.5004 54.5542C58.021 53.7711 59.062 52.988 59.5816 52.988L65.0463 52.9898ZM70.7703 62.9095H67.648L71.2946 52.9917C71.2946 52.9917 74.9374 52.9917 77.0195 53.2524C80.4011 53.2524 79.6222 57.9511 76.2387 58.7351L77.7994 62.6507H73.6323L72.8515 58.2127C74.9327 57.9511 75.4542 57.4296 75.7135 55.8634C75.7135 55.8634 75.9738 54.5598 73.8926 54.5598L70.7703 62.9095ZM84.5598 52.9917H88.2026L87.6821 60.5621L92.8874 52.9917H94.449C94.449 52.9917 90.545 59.2566 88.4648 62.1283C86.9032 64.4776 84.3014 63.1731 84.3014 62.389L84.5598 52.9917ZM106.935 53.2524L106.415 54.8186H103.549C103.289 54.8186 102.769 54.5579 102.509 55.341L101.728 57.4296H105.111L104.33 58.9958H101.208C101.208 58.9958 100.687 60.2995 100.427 61.0845C100.427 61.6059 100.427 61.8676 100.947 61.8676H104.07L103.549 63.1712L98.0853 62.9095C96.784 62.9095 96.784 62.1264 97.0452 60.8209C97.8251 58.4716 98.6059 57.1661 99.3867 54.8168C99.6469 53.7729 100.688 53.2506 101.468 53.2506L106.935 53.2524Z" fill="white"/>
</svg>
